# File created by Blade
# Date/Time:  Tue Sep 28 14:35:47 2010
#---------------------------------------------------------
:version 1.10
:name HOM
:units
  mass 1.0
  length 1.000000
  angle deg
:documentation
     Acclaim Skeleton File
:root
   axis xyz
   order TX TY TZ RX RY RZ
   position 0.000000 0.000000 0.000000
   orientation 0 0 0
:bonedata
   begin
      id 1
      name LeftUpLeg_dum
      direction 1.000000 0.000000 0.000000
      length 3.677894
      axis 0.0 0.0 0.0 xyz
   end
   begin
      id 2
      name RightUpLeg_dum
      direction -1.000000 0.000000 0.000000
      length 3.677894
      axis 0.0 0.0 0.0 xyz
   end
   begin
      id 3
      name Spine_dum
      direction 0.000000 1.000000 0.000000
      length 0.039370
      axis 0.0 0.0 0.0 xyz
   end
   begin
      id 4
      name LeftUpLeg
      direction 0.000000 -1.000000 0.000000
      length 18.389491
      axis 0.0 0.0 0.0 xyz
      dof rx ry rz
   end
   begin
      id 5
      name LeftLeg
      direction 0.000000 -1.000000 0.000000
      length 16.918313
      axis 0.0 0.0 0.0 xyz
      dof rx ry rz
   end
   begin
      id 6
      name LeftFoot
      direction 0.000000 -0.258819 0.965926
      length 6.436326
      axis 15.0 0.0 0.0 xyz
      dof rx ry rz
   end
   begin
      id 7
      name LeftToeBase
      direction 0.000000 0.000000 1.000000
      length 2.952750
      axis 0.0 0.0 0.0 xyz
      dof rx ry rz
   end
   begin
      id 8
      name RightUpLeg
      direction 0.000000 -1.000000 0.000000
      length 18.389491
      axis 0.0 0.0 0.0 xyz
      dof rx ry rz
   end
   begin
      id 9
      name RightLeg
      direction 0.000000 -1.000000 0.000000
      length 16.918313
      axis 0.0 0.0 0.0 xyz
      dof rx ry rz
   end
   begin
      id 10
      name RightFoot
      direction 0.000000 -0.258819 0.965926
      length 6.436326
      axis 15.0 0.0 0.0 xyz
      dof rx ry rz
   end
   begin
      id 11
      name RightToeBase
      direction 0.000000 0.000000 1.000000
      length 2.952750
      axis 0.0 0.0 0.0 xyz
      dof rx ry rz
   end
   begin
      id 12
      name Spine
      direction 0.000000 1.000000 0.000000
      length 9.194745
      axis 0.0 0.0 0.0 xyz
      dof rx ry rz
   end
   begin
      id 13
      name Spine1
      direction 0.000000 1.000000 0.000000
      length 0.000000
      axis 0.0 0.0 0.0 xyz
      dof rx ry rz
   end
   begin
      id 14
      name Spine1_dum1
      direction 0.000000 1.000000 0.000000
      length 9.194745
      axis 0.0 0.0 0.0 xyz
   end
   begin
      id 15
      name Spine1_dum2
      direction 0.000000 1.000000 0.000000
      length 9.194745
      axis 0.0 0.0 0.0 xyz
   end
   begin
      id 16
      name Spine1_dum3
      direction 0.000000 1.000000 0.000000
      length 9.194745
      axis 0.0 0.0 0.0 xyz
   end
   begin
      id 17
      name Neck
      direction 0.000000 1.000000 0.000000
      length 4.229598
      axis 0.0 0.0 0.0 xyz
      dof rx ry rz
   end
   begin
      id 18
      name Head
      direction 0.000000 1.000000 0.000000
      length 4.527550
      axis 0.0 0.0 0.0 xyz
      dof rx ry rz
   end
   begin
      id 19
      name LeftShoulder
      direction 1.000000 -0.000004 0.000000
      length 5.516839
      axis 0.0 0.0 -90.0 xyz
      dof rx ry rz
   end
   begin
      id 20
      name LeftArm
      direction 1.000000 -0.000004 0.000000
      length 11.033679
      axis 0.0 0.0 -90.0 xyz
      dof rx ry rz
   end
   begin
      id 21
      name LeftForeArm
      direction 1.000000 -0.000004 0.000000
      length 10.114232
      axis 0.0 0.0 -90.0 xyz
      dof rx ry rz
   end
   begin
      id 22
      name LeftHand
      direction 0.000000 0.000000 0.000000
      length 0.000000
      axis 0.0 0.0 -90.0 xyz
      dof rx ry rz
   end
   begin
      id 23
      name LeftHand_dum1
      direction 0.000000 0.000000 0.000000
      length 0.000000
      axis 0.0 0.0 -90.0 xyz
   end
   begin
      id 24
      name LeftHand_dum2
      direction 1.000000 -0.000004 0.000000
      length 3.937000
      axis 0.0 0.0 -90.0 xyz
   end
   begin
      id 25
      name LeftHandThumb
      direction 0.000000 0.000000 1.000000
      length 3.937000
      axis 0.0 0.0 -90.0 xyz
      dof rx ry rz
   end
   begin
      id 26
      name RightShoulder
      direction -1.000000 -0.000004 0.000000
      length 5.516839
      axis 0.0 0.0 90.0 xyz
      dof rx ry rz
   end
   begin
      id 27
      name RightArm
      direction -1.000000 -0.000004 0.000000
      length 11.033679
      axis 0.0 0.0 90.0 xyz
      dof rx ry rz
   end
   begin
      id 28
      name RightForeArm
      direction -1.000000 -0.000004 0.000000
      length 10.114232
      axis 0.0 0.0 90.0 xyz
      dof rx ry rz
   end
   begin
      id 29
      name RightHand
      direction 0.000000 0.000000 0.000000
      length 0.000000
      axis 0.0 0.0 90.0 xyz
      dof rx ry rz
   end
   begin
      id 30
      name RightHand_dum1
      direction 0.000000 0.000000 0.000000
      length 0.000000
      axis 0.0 0.0 90.0 xyz
   end
   begin
      id 31
      name RightHand_dum2
      direction -1.000000 -0.000004 0.000000
      length 5.393690
      axis 0.0 0.0 90.0 xyz
   end
   begin
      id 32
      name RightHandThumb
      direction 0.000000 0.000000 1.000000
      length 3.937000
      axis 0.0 0.0 90.0 xyz
      dof rx ry rz
   end
:hierarchy
   begin
      root LeftUpLeg_dum RightUpLeg_dum Spine_dum
      LeftUpLeg_dum LeftUpLeg
      RightUpLeg_dum RightUpLeg
      Spine_dum Spine
      LeftUpLeg LeftLeg
      LeftLeg LeftFoot
      LeftFoot LeftToeBase
      RightUpLeg RightLeg
      RightLeg RightFoot
      RightFoot RightToeBase
      Spine Spine1
      Spine1 Spine1_dum1 Spine1_dum2 Spine1_dum3
      Spine1_dum1 Neck
      Spine1_dum2 LeftShoulder
      Spine1_dum3 RightShoulder
      Neck Head
      LeftShoulder LeftArm
      LeftArm LeftForeArm
      LeftForeArm LeftHand
      LeftHand LeftHand_dum1 LeftHand_dum2
      LeftHand_dum1 LeftHandThumb
      RightShoulder RightArm
      RightArm RightForeArm
      RightForeArm RightHand
      RightHand RightHand_dum1 RightHand_dum2
      RightHand_dum1 RightHandThumb
   end

# File created by Blade
# Date/Time:  Tue Sep 28 14:35:42 2010
# Frame Rate: 200.000 fps
#------------------------------------------------------
:FULLY-SPECIFIED
:DEGREES
41
root  0.654465 37.926406 -82.867132 8.347777 -0.573855 -3.516685
LeftUpLeg  -9.758806 3.469924 1.760609
LeftLeg  12.968807 -0.000000 0.000000
LeftFoot  0.089561 15.592112 5.262902
LeftToeBase  -9.152696 0.000000 -0.000000
RightUpLeg  -12.261046 -29.520762 8.797607
RightLeg  12.767001 -0.000000 0.000000
RightFoot  0.158300 10.221316 -16.661937
RightToeBase  -8.324341 0.000000 -0.000000
Spine  -13.947098 -2.035409 0.599421
Spine1  8.298176 -0.600601 2.610951
Neck  13.878765 2.961988 -2.516594
Head  -15.832737 4.527925 3.390741
LeftShoulder  -10.970924 -9.883558 -10.267706
LeftArm  -0.609236 -20.807756 -3.940059
LeftForeArm  7.495461 -0.000000 0.000000
LeftHand  4.914872 17.648327 13.015794
LeftHandThumb  0.000000 -0.000000 0.000000
RightShoulder  -0.131091 10.798671 6.782378
RightArm  -0.831585 4.886623 4.190865
RightForeArm  3.427927 -0.000000 0.000000
RightHand  -0.840314 -9.823894 -8.191755
RightHandThumb  0.000000 -0.000000 0.000000
42
root  0.653873 37.922023 -82.864787 8.342583 -0.570280 -3.516739
LeftUpLeg  -9.744019 3.485543 1.764396
LeftLeg  12.984017 -0.000000 0.000000
LeftFoot  0.117855 15.623683 5.472071
LeftToeBase  -9.341644 0.000000 -0.000000
RightUpLeg  -12.274335 -29.450372 8.794158
RightLeg  12.809698 -0.000000 0.000000
RightFoot  0.129216 10.161757 -16.643633
RightToeBase  -8.387345 0.000000 -0.000000
Spine  -13.939742 -2.039947 0.602655
Spine1  8.302452 -0.606384 2.605031
Neck  13.918654 2.904755 -2.524367
Head  -15.777392 4.469571 3.411525
LeftShoulder  -10.963953 -9.960653 -10.294309
LeftArm  -0.618387 -20.808205 -3.965267
LeftForeArm  7.462913 -0.000000 0.000000
LeftHand  5.466586 19.587541 14.172771
LeftHandThumb  0.000000 -0.000000 0.000000
RightShoulder  -0.141678 10.793516 6.800428
RightArm  -0.836315 5.077159 4.204067
RightForeArm  3.413280 -0.000000 0.000000
RightHand  -0.319560 -9.629233 -8.245124
RightHandThumb  0.000000 -0.000000 0.000000
43
root  0.659958 37.916706 -82.865883 8.294530 -0.487185 -3.524351
LeftUpLeg  -9.689549 3.360929 1.783683
LeftLeg  12.978962 -0.000000 0.000000
LeftFoot  -0.113585 15.583464 5.061560
LeftToeBase  -8.804487 0.000000 -0.000000
RightUpLeg  -12.379635 -29.080512 8.754286
RightLeg  13.195650 -0.000000 0.000000
RightFoot  -0.001565 9.561622 -17.068834
RightToeBase  -8.329611 0.000000 -0.000000
Spine  -13.895760 -2.050918 0.640438
Spine1  8.312515 -0.631229 2.588419
Neck  13.967475 2.945190 -2.517066
Head  -15.741167 4.510171 3.415131
LeftShoulder  -10.965992 -9.811212 -10.361102
LeftArm  -0.566961 -21.460151 -4.003579
LeftForeArm  7.691849 -0.000000 0.000000
LeftHand  4.688770 18.651899 13.091109
LeftHandThumb  0.000000 -0.000000 0.000000
RightShoulder  -0.167270 10.766072 6.820995
RightArm  -0.830232 5.037644 4.203407
RightForeArm  3.494133 -0.000000 0.000000
RightHand  -0.936125 -9.613100 -8.247258
RightHandThumb  0.000000 -0.000000 0.000000
44
root  0.658762 37.917504 -82.864864 8.290669 -0.483705 -3.524149
LeftUpLeg  -9.690709 3.350978 1.780522
LeftLeg  12.977809 -0.000000 0.000000
LeftFoot  0.002784 15.638168 5.328467
LeftToeBase  -9.053737 0.000000 -0.000000
RightUpLeg  -12.396824 -29.082506 8.760145
RightLeg  13.221457 -0.000000 0.000000
RightFoot  0.092009 9.553778 -16.530551
RightToeBase  -8.102040 0.000000 -0.000000
Spine  -13.874426 -2.058031 0.650056
Spine1  8.326638 -0.642119 2.582493
Neck  13.954531 2.921205 -2.521238
Head  -15.751912 4.495753 3.381433
LeftShoulder  -10.952315 -9.875021 -10.391761
LeftArm  -0.600506 -20.918526 -4.039440
LeftForeArm  7.578450 -0.000000 0.000000
LeftHand  5.317325 19.077968 14.067675
LeftHandThumb  0.000000 -0.000000 0.000000
RightShoulder  -0.172520 10.844948 6.837760
RightArm  -0.841576 5.201045 4.220841
RightForeArm  3.420579 -0.000000 0.000000
RightHand  -0.207222 -9.736221 -8.077309
RightHandThumb  0.000000 -0.000000 0.000000
45
root  0.658651 37.914918 -82.863557 8.282740 -0.471524 -3.521781
LeftUpLeg  -9.683699 3.329126 1.781829
LeftLeg  12.985391 -0.000000 0.000000
LeftFoot  -0.008319 15.661059 5.310938
LeftToeBase  -9.195506 0.000000 -0.000000
RightUpLeg  -12.413911 -29.067952 8.765750
RightLeg  13.267050 -0.000000 0.000000
RightFoot  0.041968 9.448791 -16.897757
RightToeBase  -8.253561 0.000000 -0.000000
Spine  -13.870580 -2.053920 0.660125
Spine1  8.322241 -0.641558 2.586865
Neck  13.989742 2.904728 -2.537973
Head  -15.655434 4.461520 3.355635
LeftShoulder  -10.936678 -9.931538 -10.391251
LeftArm  -0.578519 -21.077117 -4.049246
LeftForeArm  7.584499 -0.000000 0.000000
LeftHand  4.935822 18.179342 13.027458
LeftHandThumb  0.000000 -0.000000 0.000000
RightShoulder  -0.148829 10.969060 6.860678
RightArm  -0.818046 5.334383 4.243430
RightForeArm  3.415456 -0.000000 0.000000
RightHand  -0.849302 -10.450493 -8.241829
RightHandThumb  0.000000 -0.000000 0.000000
46
root  0.658134 37.911609 -82.860913 8.277511 -0.465422 -3.521226
LeftUpLeg  -9.675098 3.324161 1.781037
LeftLeg  12.994595 -0.000000 0.000000
LeftFoot  -0.034753 15.696168 5.392115
LeftToeBase  -9.367774 0.000000 -0.000000
RightUpLeg  -12.436124 -29.044615 8.779458
RightLeg  13.306094 -0.000000 0.000000
RightFoot  0.053544 9.388346 -16.770380
RightToeBase  -8.336714 0.000000 -0.000000
Spine  -13.862135 -2.059075 0.663511
Spine1  8.332889 -0.648188 2.580376
Neck  14.019998 2.827349 -2.543453
Head  -15.608366 4.389286 3.381953
LeftShoulder  -10.927051 -9.984531 -10.420692
LeftArm  -0.591895 -20.778485 -4.082706
LeftForeArm  7.573371 -0.000000 0.000000
LeftHand  5.343974 19.408481 14.010892
LeftHandThumb  0.000000 -0.000000 0.000000
RightShoulder  -0.162907 10.852810 6.875259
RightArm  -0.850314 4.724149 4.262494
RightForeArm  3.435871 -0.000000 0.000000
RightHand  -0.291984 -9.489731 -8.131018
RightHandThumb  0.000000 -0.000000 0.000000
47
root  0.657441 37.907940 -82.852926 8.245454 -0.432296 -3.526621
LeftUpLeg  -9.632830 3.215629 1.802078
LeftLeg  13.014086 -0.000000 0.000000
LeftFoot  -0.081621 15.760313 5.296443
LeftToeBase  -9.275550 0.000000 -0.000000
RightUpLeg  -12.474306 -28.713764 8.742557
RightLeg  13.549027 -0.000000 0.000000
RightFoot  -0.030904 8.897227 -16.990850
RightToeBase  -8.371877 0.000000 -0.000000
Spine  -13.856624 -2.065949 0.680153
Spine1  8.329314 -0.660838 2.566842
Neck  14.100514 2.846293 -2.541931
Head  -15.524835 4.404094 3.396545
LeftShoulder  -10.932496 -9.803227 -10.467176
LeftArm  -0.564482 -21.223756 -4.109796
LeftForeArm  7.669637 -0.000000 0.000000
LeftHand  4.938540 18.283848 13.121367
LeftHandThumb  0.000000 -0.000000 0.000000
RightShoulder  -0.166465 10.925258 6.923743
RightArm  -0.823144 5.147501 4.298666
RightForeArm  3.451274 -0.000000 0.000000
RightHand  -0.738072 -9.455832 -8.191321
RightHandThumb  0.000000 -0.000000 0.000000
48
root  0.654394 37.905232 -82.850811 8.244568 -0.424449 -3.523364
LeftUpLeg  -9.627222 3.201465 1.802290
LeftLeg  13.008651 -0.000000 0.000000
LeftFoot  -0.128192 15.779440 5.341724
LeftToeBase  -9.365034 0.000000 -0.000000
RightUpLeg  -12.493400 -28.709136 8.753768
RightLeg  13.570531 -0.000000 0.000000
RightFoot  0.002657 8.875941 -16.817035
RightToeBase  -8.279556 0.000000 -0.000000
Spine  -13.838782 -2.065194 0.687456
Spine1  8.353197 -0.663553 2.562508
Neck  14.080466 2.808001 -2.564233
Head  -15.574760 4.357262 3.352108
LeftShoulder  -10.913804 -9.928025 -10.496015
LeftArm  -0.577431 -20.945245 -4.153506
LeftForeArm  7.632301 -0.000000 0.000000
LeftHand  5.192438 18.975069 13.932326
LeftHandThumb  0.000000 -0.000000 0.000000
RightShoulder  -0.160452 10.951356 6.938753
RightArm  -0.847525 4.742994 4.315380
RightForeArm  3.403558 -0.000000 0.000000
RightHand  -0.443503 -9.780629 -8.195205
RightHandThumb  0.000000 -0.000000 0.000000
